<?xml version="1.0" encoding="utf-8"?>
<!-- Generator: Adobe Illustrator 27.3.1, SVG Export Plug-In . SVG Version: 6.00 Build 0)  -->
<svg version="1.1" id="Calque_1" xmlns="http://www.w3.org/2000/svg" xmlns:xlink="http://www.w3.org/1999/xlink" x="0px" y="0px"
	 viewBox="0 0 2000 2000" style="enable-background:new 0 0 2000 2000;" xml:space="preserve">
<style type="text/css">
	.st0{fill:#FFFFFF;}
	.st1{fill:#F1F1F1;}
	.st2{fill:#E2E2E2;}
	.st3{fill:#D4D4D4;}
	.st4{fill:#C5C5C5;}
	.st5{fill:#B7B7B7;}
	.st6{fill:#A8A8A8;}
	.st7{fill:#9A9A9A;}
	.st8{fill:#8B8B8B;}
	.st9{fill:#7D7D7D;}
	.st10{fill:#6E6E6E;}
	.st11{fill:#606060;}
	.st12{fill:#77CFE0;}
	.st13{fill:#5E2C00;}
	.st14{opacity:0.6;fill:#FFFDE6;}
	.st15{fill:#F9DEA1;}
	.st16{fill:#4262AD;}
	.st17{fill:#8BE7FF;}
	.st18{fill:#FD8B92;}
	.st19{fill:#FFCE8B;}
	.st20{fill:#FDA75D;}
	.st21{fill:#52D3FA;}
	.st22{fill:#FA5681;}
</style>
<g>
	<g>
		<path class="st0" d="M1478,242c-40.6-170.7-176.2-175.7-232.6-170c-14.1,1.4-28.2,3.9-41.8,7.4c-3.6,0.9-8.5,2.2-13.7,4.1
			l-778,185.3c-17.7,2.6-110.6,19.3-162.6,93.9c-33.8,48.5-42.6,108.4-26,178.2L522.1,1796c40.6,170.7,176.2,175.7,232.6,170
			c14.1-1.4,28.2-3.9,41.8-7.4c3.6-0.9,8.5-2.2,13.7-4.1l778-185.4c19-2.7,110.7-19.5,162.6-93.9c33.8-48.5,42.6-108.4,26-178.1
			L1478,242z"/>
		<path class="st1" d="M1474.1,238.5c-40.6-170.7-176.2-175.7-232.6-170c-14.1,1.4-28.2,3.9-41.8,7.4c-3.6,0.9-8.5,2.2-13.7,4.1
			L408,265.2c-17.7,2.6-110.6,19.3-162.6,93.9c-33.8,48.5-42.6,108.4-26,178.2l298.9,1255.3c40.6,170.7,176.2,175.7,232.6,170
			c14.1-1.4,28.2-3.9,41.8-7.4c3.6-0.9,8.5-2.2,13.7-4.1l778-185.4c19-2.7,110.7-19.5,162.6-93.9c33.8-48.5,42.6-108.4,26-178.1
			L1474.1,238.5z"/>
		<path class="st2" d="M1470.3,234.9c-40.6-170.7-176.2-175.7-232.6-170c-14.1,1.4-28.2,3.9-41.8,7.4c-3.6,0.9-8.5,2.2-13.7,4.1
			l-778,185.3c-17.7,2.6-110.6,19.3-162.6,93.9c-33.8,48.5-42.6,108.4-26,178.2L514.4,1789c40.6,170.7,176.2,175.7,232.6,170
			c14.1-1.4,28.2-3.9,41.8-7.4c3.6-0.9,8.5-2.2,13.7-4.1l778-185.4c19-2.7,110.7-19.5,162.6-93.9c33.8-48.5,42.6-108.4,26-178.1
			L1470.3,234.9z"/>
		<path class="st3" d="M1466.5,231.4c-40.6-170.7-176.2-175.7-232.6-170c-14.1,1.4-28.2,3.9-41.8,7.4c-3.6,0.9-8.5,2.2-13.7,4.1
			l-778,185.3c-17.7,2.6-110.6,19.3-162.6,93.9c-33.8,48.5-42.6,108.4-26,178.2l298.9,1255.3c40.6,170.7,176.2,175.7,232.6,170
			c14.1-1.4,28.2-3.9,41.8-7.4c3.6-0.9,8.5-2.2,13.7-4.1l778-185.4c19-2.7,110.7-19.5,162.6-93.9c33.8-48.5,42.6-108.4,26-178.1
			L1466.5,231.4z"/>
		<path class="st4" d="M1462.6,227.9C1422,57.3,1286.4,52.2,1230,57.9c-14.1,1.4-28.2,3.9-41.8,7.4c-3.6,0.9-8.5,2.2-13.7,4.1
			l-778,185.3c-17.7,2.6-110.6,19.3-162.6,93.9C200,397,191.2,457,207.8,526.7L506.8,1782c40.6,170.7,176.2,175.7,232.6,170
			c14.1-1.4,28.2-3.9,41.8-7.4c3.6-0.9,8.5-2.2,13.7-4.1l778-185.4c19-2.7,110.7-19.5,162.6-93.9c33.8-48.5,42.6-108.4,26-178.1
			L1462.6,227.9z"/>
		<path class="st5" d="M1458.8,224.4c-40.6-170.7-176.2-175.7-232.6-170c-14.1,1.4-28.2,3.9-41.8,7.4c-3.6,0.9-8.5,2.2-13.7,4.1
			l-778,185.3C374.9,253.7,282,270.5,230,345c-33.8,48.5-42.6,108.4-26,178.2l298.9,1255.3c40.6,170.7,176.2,175.7,232.6,170
			c14.1-1.4,28.2-3.9,41.8-7.4c3.6-0.9,8.5-2.2,13.7-4.1l778-185.3c19-2.7,110.7-19.5,162.6-93.9c33.8-48.5,42.6-108.4,26-178.1
			L1458.8,224.4z"/>
		<path class="st6" d="M1454.9,220.9c-40.6-170.7-176.2-175.7-232.6-170c-14.1,1.4-28.2,3.9-41.8,7.4c-3.6,0.9-8.5,2.2-13.7,4.1
			l-778,185.3c-17.7,2.6-110.6,19.3-162.6,93.9c-33.8,48.5-42.6,108.4-26,178.2L499.1,1775c40.6,170.7,176.2,175.7,232.6,170
			c14.1-1.4,28.2-3.9,41.8-7.4c3.6-0.9,8.5-2.2,13.7-4.1l778-185.3c19-2.7,110.7-19.5,162.6-93.9c33.8-48.5,42.6-108.4,26-178.1
			L1454.9,220.9z"/>
		<path class="st7" d="M1451.1,217.4c-40.6-170.7-176.2-175.7-232.6-170c-14.1,1.4-28.2,3.9-41.8,7.4c-3.6,0.9-8.5,2.2-13.7,4.1
			l-778,185.3c-17.7,2.6-110.6,19.3-162.6,93.9c-33.8,48.5-42.6,108.4-26,178.2l298.9,1255.3c40.6,170.7,176.2,175.7,232.6,170
			c14.1-1.4,28.2-3.9,41.8-7.4c3.6-0.9,8.5-2.2,13.7-4.1l778-185.3c19-2.7,110.7-19.5,162.6-93.9c33.8-48.5,42.6-108.4,26-178.1
			L1451.1,217.4z"/>
		<path class="st8" d="M1447.3,213.9c-40.6-170.7-176.2-175.7-232.6-170c-14.1,1.4-28.2,3.9-41.8,7.4c-3.6,0.9-8.5,2.2-13.7,4.1
			l-778,185.3c-17.7,2.6-110.6,19.3-162.6,93.9c-33.8,48.5-42.6,108.4-26,178.2L491.4,1768c40.6,170.7,176.2,175.7,232.6,170
			c14.1-1.4,28.2-3.9,41.8-7.4c3.6-0.9,8.5-2.2,13.7-4.1l778-185.3c19-2.7,110.7-19.5,162.6-93.9c33.8-48.5,42.6-108.4,26-178.1
			L1447.3,213.9z"/>
		<path class="st9" d="M1443.4,210.4c-40.6-170.7-176.2-175.7-232.6-170c-14.1,1.4-28.2,3.9-41.8,7.4c-3.6,0.9-8.5,2.2-13.7,4.1
			l-778,185.3c-17.7,2.6-110.6,19.3-162.6,93.9c-33.8,48.5-42.6,108.4-26,178.2l298.9,1255.3c40.6,170.7,176.2,175.7,232.6,170
			c14.1-1.4,28.2-3.9,41.8-7.4c3.6-0.9,8.5-2.2,13.7-4.1l778-185.3c19-2.7,110.7-19.5,162.6-93.9c33.8-48.5,42.6-108.4,26-178.1
			L1443.4,210.4z"/>
		<path class="st10" d="M1439.6,206.9c-40.6-170.7-176.2-175.7-232.6-170c-14.1,1.4-28.2,3.9-41.9,7.4c-3.6,0.9-8.5,2.2-13.7,4.1
			l-778,185.3c-17.7,2.6-110.6,19.3-162.6,93.9c-33.8,48.5-42.6,108.4-26,178.2l298.9,1255.3c40.6,170.7,176.2,175.7,232.6,170
			c14.1-1.4,28.2-3.9,41.8-7.4c3.6-0.9,8.5-2.2,13.7-4.1l778-185.3c19-2.7,110.7-19.5,162.6-93.9c33.8-48.5,42.6-108.4,26-178.1
			L1439.6,206.9z"/>
		<path class="st11" d="M1435.7,203.4c-40.6-170.7-176.2-175.7-232.6-170c-14.1,1.4-28.2,3.9-41.9,7.4c-3.6,0.9-8.5,2.2-13.7,4.1
			l-778,185.3c-17.7,2.6-110.6,19.3-162.6,93.9c-33.8,48.5-42.6,108.4-26,178.2l298.9,1255.3c40.6,170.7,176.2,175.7,232.6,170
			c14.1-1.4,28.2-3.9,41.8-7.4c3.6-0.9,8.5-2.2,13.7-4.1l778-185.3c19-2.7,110.7-19.5,162.6-93.9c33.8-48.5,42.6-108.4,26-178.1
			L1435.7,203.4z"/>
	</g>
	<path class="st0" d="M1435.7,203.4c-40.6-170.7-176.2-175.7-232.6-170c-14.1,1.4-28.2,3.9-41.9,7.4c-3.6,0.9-8.5,2.2-13.7,4.1
		l-778,185.3c-17.7,2.6-110.6,19.3-162.6,93.9c-33.8,48.5-42.6,108.4-26,178.2l298.9,1255.3c40.6,170.7,176.2,175.7,232.6,170
		c14.1-1.4,28.2-3.9,41.8-7.4c3.6-0.9,8.5-2.2,13.7-4.1l778-185.3c19-2.7,110.7-19.5,162.6-93.9c33.8-48.5,42.6-108.4,26-178.1
		L1435.7,203.4z"/>
	<g>
		<g>
			<path class="st12" d="M1159.5,93.8l-252.3,60.1l-276.8,65.9l-252.3,60.1c0,0-192.8,23-148.1,210.6l61.2,256.9l176.6,741.5
				l61.2,256.9c44.7,187.6,227.1,121.2,227.1,121.2l252.3-60.1l276.8-65.9l252.3-60.1c0,0,192.8-22.9,148.1-210.6l-61.2-256.9
				l-176.6-741.5L1386.6,215C1341.9,27.4,1159.5,93.8,1159.5,93.8z"/>
			<path class="st13" d="M708.4,1887.1L708.4,1887.1c-56.9,5.8-157.1-4.6-189.1-139.1L220.4,492.8c-13.8-58-7.2-107,19.8-145.6
				C286,281.5,373.3,270.4,377,270l780.2-185.9c-0.2,0,20.6-7.5,50-10.5c56.9-5.8,157,4.6,189.1,139.1L1695.2,1468
				c13.8,58,7.2,107-19.8,145.6c-45.8,65.7-133.2,76.7-136.8,77.2l-780.2,185.9C758.6,1876.6,737.9,1884.1,708.4,1887.1z
				 M1209.2,93.5c-26.9,2.7-46.2,9.6-46.4,9.7L380.5,289.5c-1.9,0.3-83.5,10.8-124.1,69.2c-23.5,33.7-29.1,77.3-16.7,129.4
				l298.9,1255.3c27.1,113.7,106.1,130.1,167.7,123.9l0,0c26.8-2.7,46.1-9.6,46.3-9.7l782.4-186.4c1.9-0.3,83.5-10.8,124.1-69.1
				c23.5-33.7,29.1-77.3,16.7-129.5L1376.9,217.3C1349.9,103.6,1270.8,87.2,1209.2,93.5z"/>
		</g>
		<path class="st14" d="M1141.3,159.7l-231.6,55.1l-254.1,60.5l-231.6,55.2c0,0-177,21.1-135.9,193.3l56.1,235.8l162.1,680.7
			l56.2,235.8c41,172.2,208.5,111.3,208.5,111.3l231.6-55.1l254.1-60.5l231.6-55.2c0,0,177-21.1,136-193.3l-56.2-235.8L1406,506.9
			L1349.8,271C1308.8,98.8,1141.3,159.7,1141.3,159.7z"/>
		<g>
			<path class="st12" d="M475.7,331l413.2-134.1l-224.2,53.4l-245.6,58.5c0,0-187.7,22.4-144.2,205.1l59.6,250.1l48.9,205.2
				l-54.6-428.9C284.2,353.8,475.7,331,475.7,331z"/>
		</g>
		<g>
			<path class="st12" d="M1608.9,1396.1l-66.5-429.3l53.4,224.3l58.5,245.6c0,0,64.7,177.6-118,221.1l-250.1,59.6l-205.2,48.9
				l407.5-144.5C1674.8,1577.3,1608.9,1396.1,1608.9,1396.1z"/>
		</g>
		<g>
			<g>
				<g>
					<g>
						<path class="st15" d="M675.2,1047.6l-136.6,32.6c0,0-33.5,4.8-27.4,30.8l0.3,1.4l16.7,70.3l5.7,24.1
							c6.2,26,38.3,15.1,38.3,15.1l136.6-32.6c0,0,33.5-4.8,27.4-30.8l-5.7-24.1l-16.7-70.3l-0.3-1.4
							C707.3,1036.8,675.2,1047.6,675.2,1047.6z"/>
						<path class="st13" d="M564.2,1231.7L564.2,1231.7c-21,2.7-35.9-5.7-39.9-22.6l-22.8-95.8c-2.9-12.3,1.7-20.9,6.2-26
							c10.5-11.9,28.2-14.7,30.2-15l135.5-32.4c-0.1,0.1,3.9-1.3,9.8-2.1c21-2.7,35.9,5.7,40,22.6l22.8,95.8
							c2.9,12.3-1.7,20.9-6.2,26c-10.5,11.9-28.2,14.7-30.2,15l-135.5,32.4C574.7,1229.6,570.2,1230.9,564.2,1231.7z M684.2,1053.7
							c-3.5,0.5-6.2,1.3-6.2,1.3l-137.7,32.9c-4.1,0.7-12.8,3-17.1,7.9c-2.9,3.3-3.6,7.5-2.4,12.9l22.7,95.8
							c2.2,9.2,8.4,12.8,19.5,11.4l0,0c3.6-0.5,6.2-1.3,6.2-1.3l137.6-32.9c4.1-0.7,12.8-3,17.2-7.9c2.9-3.3,3.6-7.5,2.3-12.9
							l-22.7-95.7C701.6,1055.9,695.4,1052.2,684.2,1053.7z"/>
					</g>
					<g>
						<path class="st15" d="M914.7,990.5l-136.6,32.6c0,0-33.5,4.8-27.4,30.8l0.3,1.4l16.7,70.3l5.7,24c6.2,26,38.3,15.2,38.3,15.2
							l136.6-32.6c0,0,33.5-4.8,27.4-30.8l-5.7-24l-16.7-70.3l-0.3-1.4C946.7,979.6,914.7,990.5,914.7,990.5z"/>
						<path class="st13" d="M803.7,1174.6L803.7,1174.6c-21,2.7-36-5.7-40-22.6l-22.7-95.7c-2.9-12.4,1.7-21,6.2-26
							c10.5-11.9,28.2-14.7,30.2-15l135.5-32.4c-0.1,0.2,3.9-1.3,9.8-2.1c21-2.7,36,5.7,40,22.6l22.8,95.8c2.9,12.4-1.7,21-6.2,26
							c-10.5,11.9-28.2,14.7-30.2,15l-135.4,32.4C814,1172.4,809.7,1173.8,803.7,1174.6z M923.7,996.5c-3.6,0.5-6.2,1.3-6.2,1.3
							l-137.6,32.9c-4.1,0.7-12.8,3-17.1,7.9c-2.9,3.3-3.7,7.5-2.4,12.9l22.7,95.8c2.2,9.2,8.4,12.8,19.5,11.4l0,0
							c3.5-0.5,6.1-1.3,6.2-1.3l137.6-32.9c4.1-0.7,12.8-3,17.1-7.9c2.9-3.3,3.7-7.5,2.4-12.9l-22.8-95.8
							C941.1,998.7,934.9,995.1,923.7,996.5z"/>
					</g>
					<g>
						<path class="st15" d="M1154.2,933.3l-136.6,32.6c0,0-33.5,4.8-27.4,30.8l0.3,1.4l16.7,70.3l5.7,24.1
							c6.2,26,38.3,15.2,38.3,15.2l136.6-32.6c0,0,33.5-4.8,27.3-30.8l-5.7-24.1l-16.7-70.3l-0.3-1.4
							C1186.3,922.5,1154.2,933.3,1154.2,933.3z"/>
						<path class="st13" d="M1043.2,1117.4L1043.2,1117.4c-21,2.7-36-5.7-40-22.6l-22.7-95.7c-2.9-12.4,1.7-21,6.2-26
							c10.5-11.9,28.2-14.7,30.2-15l135.4-32.4c0,0.1,3.9-1.3,9.8-2.1c21-2.7,36,5.7,40,22.6l22.7,95.8c2.9,12.4-1.7,20.9-6.2,26
							c-10.5,11.9-28.2,14.7-30.1,15l-135.5,32.4C1053.6,1115.4,1049.2,1116.6,1043.2,1117.4z M1163.2,939.4
							c-3.6,0.5-6.2,1.3-6.2,1.3l-137.6,32.9c-4.1,0.7-12.8,3-17.1,7.9c-2.9,3.3-3.6,7.5-2.3,12.9l22.7,95.8
							c2.2,9.2,8.4,12.8,19.5,11.4l0,0c3.6-0.5,6.2-1.3,6.2-1.3l137.6-32.9c4.1-0.7,12.8-3,17.1-7.9c2.9-3.3,3.7-7.5,2.4-12.9
							l-22.7-95.8C1180.6,941.6,1174.4,937.9,1163.2,939.4z"/>
					</g>
					<g>
						<path class="st15" d="M1393.7,876.2l-136.6,32.6c0,0-33.5,4.8-27.4,30.8l0.3,1.4l16.7,70.3l5.7,24c6.2,26,38.3,15.2,38.3,15.2
							l136.6-32.6c0,0,33.5-4.8,27.3-30.8l-5.7-24.1l-16.7-70.3l-0.3-1.4C1425.8,865.3,1393.7,876.2,1393.7,876.2z"/>
						<path class="st13" d="M1282.7,1060.2c-21,2.7-36-5.7-40-22.6l-22.7-95.7c-2.9-12.4,1.7-21,6.2-26c10.5-11.9,28.2-14.7,30.2-15
							l135.5-32.4c-0.4,0.1,3.9-1.3,9.8-2.1c21-2.7,36,5.7,40,22.6l22.8,95.8c2.9,12.4-1.8,21-6.2,26c-10.5,11.9-28.2,14.7-30.2,15
							l-135.5,32.4C1292.9,1058.2,1288.7,1059.5,1282.7,1060.2z M1402.7,882.2c-3.5,0.5-6.2,1.3-6.2,1.3l-137.7,32.9
							c-4.1,0.7-12.8,3-17.1,7.9c-2.9,3.3-3.6,7.5-2.4,12.9l22.8,95.7c2.2,9.2,8.4,12.9,19.6,11.4c3.5-0.5,6.1-1.3,6.2-1.3
							l137.7-32.9c4.1-0.7,12.8-2.9,17.1-7.9c2.9-3.3,3.6-7.5,2.4-12.9l-22.7-95.8C1420.1,884.4,1413.9,880.8,1402.7,882.2z"/>
					</g>
				</g>
				<g>
					<g>
						<path class="st15" d="M717,1223.5l-136.6,32.6c0,0-33.5,4.8-27.3,30.8l0.3,1.4l16.7,70.3l5.7,24.1c6.2,26,38.3,15.1,38.3,15.1
							l136.6-32.6c0,0,33.5-4.8,27.3-30.8l-5.7-24.1l-16.7-70.3l-0.3-1.4C749.1,1212.7,717,1223.5,717,1223.5z"/>
						<path class="st13" d="M606,1407.6L606,1407.6c-21,2.7-35.9-5.7-39.9-22.6l-22.7-95.7c-2.9-12.4,1.7-21,6.2-26
							c10.5-11.9,28.2-14.7,30.2-15l135.5-32.4c-0.3,0.2,3.9-1.3,9.8-2.1c21-2.7,35.9,5.7,40,22.6l22.8,95.8
							c2.9,12.4-1.8,20.9-6.2,26c-10.5,11.9-28.2,14.7-30.2,15l-135.5,32.4C616.2,1405.4,612,1406.9,606,1407.6z M726,1229.6
							c-3.6,0.5-6.2,1.3-6.2,1.3l-137.7,32.9c-4.1,0.7-12.8,3-17.1,7.9c-2.9,3.3-3.6,7.5-2.4,12.9l22.8,95.8
							c2.2,9.2,8.4,12.8,19.5,11.4l0,0c3.6-0.5,6.2-1.3,6.2-1.3l137.7-32.9c4.1-0.7,12.8-3,17.1-7.9c2.9-3.3,3.6-7.5,2.3-12.9
							l-22.7-95.8C743.4,1231.8,737.2,1228.2,726,1229.6z"/>
					</g>
					<g>
						<path class="st15" d="M956.5,1166.4L819.9,1199c0,0-33.5,4.8-27.4,30.8l0.3,1.4l16.7,70.3l5.7,24.1
							c6.2,26,38.3,15.2,38.3,15.2l136.6-32.6c0,0,33.5-4.8,27.4-30.8l-5.7-24l-16.7-70.4l-0.3-1.4
							C988.6,1155.6,956.5,1166.4,956.5,1166.4z"/>
						<path class="st13" d="M845.5,1350.5L845.5,1350.5c-21,2.7-36-5.7-40-22.6l-22.7-95.8c-2.9-12.3,1.7-20.9,6.2-26
							c10.5-11.9,28.2-14.7,30.2-15l135.4-32.4c-0.5,0.1,3.9-1.3,9.9-2.1c21-2.7,35.9,5.7,39.9,22.6l22.8,95.8
							c2.9,12.4-1.7,20.9-6.2,26c-10.5,11.9-28.2,14.7-30.2,15l-135.4,32.4C855.9,1348.4,851.5,1349.7,845.5,1350.5z M965.5,1172.5
							c-3.6,0.5-6.2,1.3-6.2,1.3l-137.6,32.9c-4.1,0.7-12.8,3-17.1,7.9c-2.9,3.3-3.6,7.5-2.3,12.9l22.7,95.8
							c2.2,9.2,8.4,12.8,19.5,11.4l0,0c3.5-0.5,6.2-1.3,6.2-1.3l137.7-32.9c4.1-0.7,12.8-3,17.2-7.9c2.8-3.3,3.6-7.5,2.3-12.9
							l-22.7-95.7C982.9,1174.7,976.7,1171,965.5,1172.5z"/>
					</g>
					<g>
						<path class="st15" d="M1196,1109.3l-136.6,32.6c0,0-33.5,4.8-27.4,30.8l0.3,1.4l16.7,70.3l5.7,24c6.2,26,38.3,15.2,38.3,15.2
							l136.6-32.6c0,0,33.5-4.8,27.4-30.8l-5.7-24.1l-16.7-70.3l-0.3-1.4C1228.1,1098.4,1196,1109.3,1196,1109.3z"/>
						<path class="st13" d="M1085,1293.4L1085,1293.4c-21,2.7-36-5.7-40-22.6l-22.7-95.8c-2.9-12.3,1.7-21,6.2-26
							c10.5-11.9,28.2-14.7,30.2-15l135.4-32.4c-0.2,0.2,3.9-1.3,9.8-2.1c21-2.7,36,5.7,40,22.6l22.7,95.8c2.9,12.4-1.7,21-6.2,26
							c-10.5,11.9-28.2,14.7-30.2,15l-135.4,32.4C1095.2,1291.3,1091,1292.6,1085,1293.4z M1205,1115.3c-3.5,0.5-6.2,1.3-6.2,1.3
							l-137.7,32.9c-4.1,0.7-12.8,3-17.1,7.9c-2.9,3.3-3.6,7.5-2.4,12.9l22.8,95.8c2.2,9.2,8.4,12.8,19.5,11.4l0,0
							c3.5-0.5,6.1-1.3,6.2-1.3l137.7-32.9c4.1-0.7,12.8-3,17.1-7.9c2.9-3.3,3.6-7.5,2.4-12.9l-22.8-95.8
							C1222.4,1117.5,1216.1,1113.9,1205,1115.3z"/>
					</g>
					<g>
						<path class="st15" d="M1435.5,1052.1l-136.6,32.6c0,0-33.5,4.8-27.4,30.8l0.3,1.4l16.7,70.3l5.7,24.1
							c6.2,26,38.3,15.2,38.3,15.2l136.6-32.6c0,0,33.5-4.8,27.4-30.8l-5.7-24.1l-16.7-70.3l-0.3-1.4
							C1467.5,1041.3,1435.5,1052.1,1435.5,1052.1z"/>
						<path class="st13" d="M1324.5,1236.2c-21,2.7-36-5.7-40-22.6l-22.7-95.7c-2.9-12.4,1.7-21,6.2-26c10.5-11.9,28.2-14.7,30.2-15
							l135.5-32.4c-0.1,0.1,3.9-1.3,9.8-2.1c21-2.7,35.9,5.7,39.9,22.6l22.8,95.8c2.9,12.3-1.7,20.9-6.2,26
							c-10.5,11.9-28.2,14.7-30.2,15l-135.5,32.4C1335,1234.1,1330.5,1235.4,1324.5,1236.2z M1444.5,1058.2
							c-3.5,0.5-6.2,1.3-6.2,1.3l-137.7,32.9c-4.1,0.7-12.8,3-17.2,7.9c-2.9,3.3-3.6,7.5-2.3,12.9l22.8,95.8
							c2.2,9.2,8.4,12.8,19.5,11.4c3.6-0.5,6.2-1.3,6.2-1.3l137.7-32.9c4.1-0.7,12.8-3,17.1-7.9c2.9-3.3,3.6-7.5,2.4-12.9
							l-22.7-95.8C1461.9,1060.4,1455.7,1056.8,1444.5,1058.2z"/>
					</g>
				</g>
				<g>
					<g>
						<path class="st15" d="M758.8,1399.5l-136.6,32.6c0,0-33.5,4.8-27.3,30.8l0.3,1.4l16.7,70.3l5.7,24c6.2,26,38.3,15.2,38.3,15.2
							l136.6-32.6c0,0,33.5-4.8,27.4-30.8l-5.7-24.1l-16.7-70.3l-0.3-1.4C790.9,1388.7,758.8,1399.5,758.8,1399.5z"/>
						<path class="st13" d="M647.8,1583.6L647.8,1583.6c-21,2.7-35.9-5.7-40-22.6l-22.7-95.8c-2.9-12.3,1.7-20.9,6.2-25.9
							c10.5-11.9,28.2-14.7,30.2-15l135.5-32.4c0,0.2,3.9-1.3,9.8-2.1c21-2.7,35.9,5.7,39.9,22.6l22.8,95.7
							c2.9,12.4-1.7,20.9-6.2,26c-10.5,11.9-28.2,14.7-30.1,15l-135.5,32.4C658,1581.5,653.8,1582.8,647.8,1583.6z M767.8,1405.6
							c-3.6,0.5-6.2,1.3-6.2,1.3L624,1439.8c-4.1,0.7-12.8,3-17.1,7.9c-2.9,3.3-3.6,7.5-2.3,12.9l22.7,95.8
							c2.2,9.2,8.4,12.8,19.5,11.4l0,0c3.5-0.5,6.2-1.3,6.2-1.3l137.7-32.9c4.1-0.7,12.8-3,17.1-7.9c2.9-3.3,3.6-7.5,2.3-12.9
							l-22.7-95.8C785.2,1407.8,778.9,1404.1,767.8,1405.6z"/>
					</g>
					<g>
						<path class="st15" d="M998.3,1342.4L861.6,1375c0,0-33.5,4.8-27.3,30.8l0.3,1.4l16.7,70.3l5.7,24.1
							c6.2,26,38.3,15.1,38.3,15.1l136.6-32.6c0,0,33.5-4.8,27.3-30.8l-5.7-24.1l-16.7-70.3l-0.3-1.4
							C1030.3,1331.5,998.3,1342.4,998.3,1342.4z"/>
						<path class="st13" d="M887.3,1526.4L887.3,1526.4c-21,2.7-35.9-5.7-40-22.6l-22.7-95.8c-2.9-12.3,1.7-21,6.2-26
							c10.5-11.9,28.2-14.7,30.2-15l135.4-32.4c-0.4,0.1,3.9-1.3,9.8-2.1c21-2.7,36,5.7,40,22.6l22.7,95.8c2.9,12.3-1.7,21-6.2,26
							c-10.5,11.9-28.2,14.7-30.2,15l-135.5,32.4C897.5,1524.2,893.3,1525.7,887.3,1526.4z M1007.3,1348.4c-3.6,0.5-6.2,1.3-6.2,1.3
							l-137.6,32.9c-4.1,0.7-12.8,3-17.1,7.9c-2.9,3.3-3.6,7.5-2.3,12.9l22.7,95.8c2.2,9.2,8.4,12.8,19.5,11.4l0,0
							c3.5-0.5,6.2-1.3,6.2-1.3l137.7-32.9c4.1-0.7,12.8-3,17.1-7.9c2.9-3.3,3.6-7.5,2.4-12.9l-22.7-95.8
							C1024.7,1350.6,1018.4,1347,1007.3,1348.4z"/>
					</g>
					<g>
						<path class="st15" d="M1237.7,1285.2l-136.6,32.6c0,0-33.5,4.8-27.4,30.8l0.4,1.4l16.7,70.3l5.7,24.1
							c6.2,26,38.3,15.2,38.3,15.2l136.6-32.6c0,0,33.5-4.8,27.3-30.8l-5.7-24l-16.7-70.3l-0.3-1.4
							C1269.9,1274.4,1237.7,1285.2,1237.7,1285.2z"/>
						<path class="st13" d="M1126.8,1469.3L1126.8,1469.3c-21,2.7-35.9-5.7-40-22.6l-22.7-95.7c-2.9-12.4,1.7-21,6.2-26
							c10.5-11.9,28.2-14.8,30.2-15l135.4-32.4c-0.6,0.1,3.9-1.3,9.9-2.1c21-2.7,35.9,5.7,39.9,22.6l22.8,95.8
							c2.9,12.4-1.7,21-6.2,26c-10.5,11.9-28.2,14.7-30.2,15l-135.4,32.4C1137.3,1467.2,1132.8,1468.5,1126.8,1469.3z
							 M1246.8,1291.3c-3.6,0.5-6.2,1.3-6.2,1.3l-137.6,32.9c-4.1,0.7-12.8,3-17.2,7.9c-2.9,3.3-3.6,7.5-2.4,12.9l22.8,95.8
							c2.2,9.2,8.4,12.8,19.5,11.4l0,0c3.6-0.5,6.2-1.3,6.2-1.3l137.7-32.9c4.1-0.7,12.8-3,17.1-7.9c2.9-3.3,3.6-7.5,2.3-12.9
							l-22.7-95.7C1264.2,1293.5,1257.9,1289.9,1246.8,1291.3z"/>
					</g>
					<g>
						<path class="st15" d="M1477.3,1228.1l-136.6,32.6c0,0-33.5,4.8-27.3,30.8l0.3,1.4l16.7,70.3l5.7,24.1
							c6.2,26,38.3,15.1,38.3,15.1l136.6-32.6c0,0,33.5-4.8,27.3-30.8l-5.7-24.1l-16.7-70.3l-0.3-1.4
							C1509.4,1217.2,1477.3,1228.1,1477.3,1228.1z"/>
						<path class="st13" d="M1366.3,1412.2c-21,2.7-36-5.7-40-22.6l-22.7-95.8c-2.9-12.3,1.7-20.9,6.2-26
							c10.5-11.9,28.2-14.7,30.2-15l135.5-32.4c-0.1,0.1,3.9-1.3,9.8-2.1c21-2.7,35.9,5.7,39.9,22.6l22.7,95.8
							c2.9,12.3-1.7,20.9-6.2,26c-10.5,11.9-28.2,14.7-30.2,15.1l-135.5,32.4C1376.6,1410.2,1372.3,1411.4,1366.3,1412.2z
							 M1486.3,1234.1c-3.6,0.5-6.2,1.3-6.2,1.3l-137.7,32.9c-4.1,0.7-12.8,3-17.1,7.9c-2.9,3.3-3.6,7.5-2.4,12.9l22.8,95.8
							c2.2,9.2,8.4,12.8,19.5,11.4c3.6-0.5,6.1-1.3,6.2-1.3l137.7-32.9c4.1-0.7,12.8-3,17.1-7.9c2.9-3.3,3.6-7.5,2.4-12.9
							l-22.8-95.8C1503.7,1236.3,1497.5,1232.7,1486.3,1234.1z"/>
					</g>
				</g>
				<g>
					<g>
						<path class="st15" d="M800.6,1575.5L663.9,1608c0,0-33.5,4.8-27.4,30.8l0.3,1.4l16.7,70.3l5.7,24.1
							c6.2,26,38.3,15.2,38.3,15.2l136.6-32.6c0,0,33.5-4.8,27.3-30.8l-5.7-24.1l-16.7-70.3l-0.3-1.4
							C832.6,1564.6,800.6,1575.5,800.6,1575.5z"/>
						<path class="st13" d="M689.6,1759.5L689.6,1759.5c-21,2.7-36-5.7-40-22.6l-22.7-95.8c-2.9-12.4,1.7-21,6.2-26
							c10.5-11.9,28.2-14.7,30.2-15l135.4-32.4c-0.2,0.1,3.9-1.3,9.8-2.1c21-2.7,36,5.7,40,22.6l22.8,95.7c2.9,12.4-1.7,21-6.2,26
							c-10.5,11.9-28.2,14.7-30.2,15l-135.5,32.4C699.8,1757.7,695.6,1758.8,689.6,1759.5z M809.6,1581.5c-3.5,0.5-6.2,1.3-6.2,1.3
							l-137.7,32.9c-4.1,0.7-12.8,3-17.2,7.9c-2.9,3.3-3.6,7.5-2.3,12.9l22.8,95.7c2.2,9.2,8.4,12.8,19.5,11.4l0,0
							c3.5-0.5,6.1-1.3,6.2-1.3l137.7-32.9c4.1-0.7,12.8-3,17.1-7.9c2.9-3.3,3.6-7.5,2.4-12.9l-22.7-95.8
							C827,1583.7,820.8,1580.1,809.6,1581.5z"/>
					</g>
					<g>
						<path class="st15" d="M1040.1,1518.3l-136.6,32.6c0,0-33.5,4.8-27.4,30.8l0.3,1.4l16.7,70.3l5.7,24.1
							c6.2,26,38.3,15.1,38.3,15.1l136.6-32.6c0,0,33.5-4.8,27.4-30.8l-5.7-24l-16.7-70.3l-0.3-1.4
							C1072.1,1507.5,1040.1,1518.3,1040.1,1518.3z"/>
						<path class="st13" d="M929.1,1702.4L929.1,1702.4c-21,2.7-35.9-5.7-40-22.6l-22.7-95.8c-2.9-12.4,1.7-20.9,6.2-26
							c10.5-11.9,28.2-14.8,30.2-15l135.5-32.4c-0.2,0.2,3.9-1.3,9.8-2.1c21-2.7,36,5.7,40,22.6l22.8,95.8c2.9,12.4-1.7,21-6.2,26
							c-10.5,11.9-28.2,14.7-30.2,15L939,1700.3C939.6,1700.4,935.1,1701.6,929.1,1702.4z M1049.1,1524.4c-3.6,0.5-6.2,1.3-6.2,1.3
							l-137.7,32.9c-4.1,0.7-12.8,3-17.1,7.9c-2.9,3.3-3.6,7.5-2.3,12.9l22.8,95.8c2.2,9.2,8.4,12.8,19.5,11.4l0,0
							c3.5-0.5,6.2-1.3,6.2-1.3l137.6-32.9c4.1-0.7,12.8-3,17.2-7.9c2.9-3.3,3.6-7.5,2.3-12.9l-22.7-95.8
							C1066.5,1526.5,1060.2,1522.9,1049.1,1524.4z"/>
					</g>
					<g>
						<path class="st15" d="M1279.6,1461.2l-136.6,32.6c0,0-33.5,4.8-27.3,30.8l0.3,1.4l16.7,70.3l5.7,24
							c6.2,26,38.3,15.1,38.3,15.1l136.6-32.6c0,0,33.5-4.8,27.3-30.8l-5.7-24l-16.7-70.3l-0.3-1.4
							C1311.6,1450.3,1279.6,1461.2,1279.6,1461.2z"/>
						<path class="st13" d="M1168.6,1645.2L1168.6,1645.2c-21,2.7-35.9-5.7-40-22.6l-22.7-95.8c-2.9-12.3,1.7-20.9,6.2-26
							c10.5-11.9,28.2-14.7,30.1-15l135.5-32.4c-0.3,0.1,3.9-1.3,9.8-2.1c21-2.7,35.9,5.7,40,22.6l22.7,95.8c2.9,12.3-1.7,21-6.2,26
							c-10.5,11.9-28.2,14.7-30.2,15l-135.5,32.4C1178.7,1643.2,1174.6,1644.5,1168.6,1645.2z M1288.6,1467.2
							c-3.6,0.5-6.2,1.3-6.2,1.3l-137.7,32.9c-4.1,0.6-12.8,3-17.1,7.9c-2.9,3.3-3.6,7.5-2.3,12.9l22.7,95.8
							c2.2,9.2,8.4,12.8,19.5,11.4l0,0c3.6-0.5,6.2-1.3,6.2-1.3l137.7-32.9c4.1-0.7,12.8-3,17.1-7.9c2.9-3.3,3.6-7.5,2.3-12.9
							l-22.7-95.7C1305.9,1469.4,1299.7,1465.8,1288.6,1467.2z"/>
					</g>
					<g>
						<path class="st15" d="M1519.1,1404l-136.6,32.6c0,0-33.5,4.8-27.3,30.8l0.3,1.4l16.7,70.3l5.7,24c6.2,26,38.3,15.2,38.3,15.2
							l136.6-32.6c0,0,33.5-4.8,27.3-30.8l-5.7-24.1l-16.7-70.3l-0.3-1.4C1551.1,1393.2,1519.1,1404,1519.1,1404z"/>
						<path class="st13" d="M1408.1,1588.1c-21,2.7-36-5.7-40-22.6l-22.8-95.8c-2.9-12.4,1.7-21,6.2-26c10.5-11.9,28.2-14.7,30.2-15
							l135.4-32.4c-0.3,0,3.9-1.3,9.9-2.1c21-2.7,35.9,5.7,39.9,22.6l22.7,95.8c2.9,12.3-1.7,20.9-6.2,26
							c-10.5,11.9-28.2,14.7-30.2,15L1418,1586C1418.4,1586,1414.1,1587.3,1408.1,1588.1z M1528.1,1410.1c-3.6,0.5-6.2,1.3-6.2,1.3
							l-137.6,32.9c-4.1,0.7-12.8,3-17.2,7.9c-2.9,3.3-3.6,7.5-2.3,12.9l22.8,95.8c2.2,9.2,8.4,12.8,19.5,11.4
							c3.5-0.5,6.1-1.3,6.2-1.3l137.6-32.9c4.1-0.7,12.8-3,17.1-7.9c2.9-3.3,3.6-7.5,2.3-12.9l-22.8-95.8
							C1545.5,1412.3,1539.3,1408.6,1528.1,1410.1z"/>
					</g>
				</g>
			</g>
			<path class="st16" d="M715.5,1514.1l-8.6,2l-10.3-43.3c-1.7,2.1-4,4.3-7,6.6c-3,2.4-5.7,4.3-8.2,5.7l-1.6-6.6
				c4.4-2.9,8-6.1,11-9.5c3-3.4,4.9-6.5,5.9-9.2l5.5-1.3L715.5,1514.1z"/>
			<path class="st16" d="M974.9,1445.3l1.6,6.6l-46.2,11c-0.4-1.6-0.5-3.3-0.1-5c0.6-2.8,1.9-5.7,3.9-8.7c2-3,5.1-6.7,9.2-11.1
				c6.4-6.7,10.6-11.9,12.6-15.4c2-3.5,2.7-6.6,2.1-9.1c-0.6-2.7-2.4-4.7-5.3-5.9c-2.9-1.3-6.2-1.4-10.2-0.5c-4.1,1-7.2,2.7-9.2,5.3
				c-2,2.6-2.6,5.6-1.8,9l-9,1.4c-0.6-5.3,0.7-9.8,4-13.5c3.3-3.7,8.3-6.3,14.9-7.9c6.7-1.6,12.4-1.4,17,0.6c4.6,2,7.4,5.2,8.5,9.6
				c0.5,2.2,0.5,4.5-0.2,6.9c-0.6,2.4-2,5.1-4.1,8.1c-2.1,3-5.7,7.3-10.9,12.9c-4.3,4.6-7.1,7.8-8.3,9.3c-1.2,1.6-2.1,3.1-2.7,4.5
				L974.9,1445.3z"/>
			<path class="st16" d="M1166.4,1390.5l8.4-3c1.9,3.6,4.2,6,7,7.1c2.8,1.1,5.8,1.3,9.2,0.5c4-1,7.2-2.9,9.4-5.8
				c2.2-2.9,3-5.9,2.2-9.2c-0.7-3.1-2.6-5.4-5.7-6.8c-3-1.4-6.6-1.6-10.5-0.7c-1.6,0.4-3.6,1.1-5.9,2.2l-0.5-6.2
				c0.6-0.1,1.1-0.2,1.4-0.2c3.7-0.9,6.8-2.4,9.3-4.6c2.6-2.2,3.5-4.9,2.7-8c-0.6-2.5-2.1-4.3-4.7-5.4c-2.5-1.1-5.5-1.3-8.8-0.5
				c-3.4,0.8-5.9,2.3-7.8,4.5c-1.8,2.2-2.7,5-2.5,8.5l-8.9,0.8c0-4.8,1.5-8.9,4.6-12.3c3.1-3.4,7.4-5.7,13-7.1
				c3.8-0.9,7.5-1.1,11-0.5c3.5,0.5,6.4,1.7,8.6,3.5c2.2,1.8,3.6,4,4.3,6.5c0.6,2.4,0.3,4.8-0.9,7.1c-1.2,2.3-3.2,4.5-6.1,6.4
				c4.3-0.3,7.9,0.6,10.7,2.4c2.9,1.8,4.7,4.5,5.5,8.1c1.2,4.8-0.1,9.5-3.7,13.9c-3.6,4.4-8.9,7.4-15.7,9.1
				c-6.1,1.5-11.5,1.3-16.3-0.7C1171.3,1398.2,1168.1,1395,1166.4,1390.5z"/>
			<path class="st16" d="M678.2,1336.9l-3.1-13.2l-30.3,7.2l-1.5-6.2l23.3-43.4l7-1.7l8.5,35.9l9.4-2.3l1.5,6.3l-9.4,2.2l3.2,13.2
				L678.2,1336.9z M673.6,1317.5l-5.9-25l-15.9,30.1L673.6,1317.5z"/>
			<path class="st16" d="M884.8,1271.4l8.8-2.8c1.5,3.3,3.7,5.6,6.5,6.7c2.8,1.2,6,1.3,9.4,0.5c4.1-1,7.3-3,9.6-6.2
				c2.3-3.2,2.9-6.8,1.9-10.8c-0.9-3.9-3-6.6-6.3-8.2c-3.3-1.6-7.2-1.9-11.6-0.8c-2.7,0.7-5.1,1.8-7.1,3.3c-2,1.5-3.4,3.2-4.3,5.1
				l-8.2,1.1l0-30l34.7-8.3l1.5,6.5l-27.9,6.6l-0.2,15.8c3.6-3.3,7.8-5.5,12.4-6.6c6.1-1.4,11.7-1,16.6,1.3c5,2.3,8.1,6.1,9.4,11.4
				c1.2,5,0.4,9.8-2.4,14.3c-3.4,5.5-9,9.2-16.7,11.1c-6.3,1.5-11.9,1.3-16.5-0.5C889.6,1279.1,886.4,1275.9,884.8,1271.4z"/>
			<path class="st16" d="M1162.9,1176.7l-8.4,2.6c-1.4-2.5-2.9-4.2-4.6-5c-2.8-1.4-5.9-1.7-9.2-0.9c-2.8,0.7-5,1.8-6.8,3.5
				c-2.3,2.2-3.9,5-4.7,8.4c-0.9,3.4-0.7,7.8,0.6,13.4c1.5-3,3.6-5.5,6.2-7.4c2.7-1.9,5.7-3.3,9-4c5.7-1.4,11-0.9,15.8,1.5
				c4.8,2.4,7.8,6.2,9.1,11.5c0.8,3.5,0.7,6.9-0.5,10.4c-1.2,3.4-3.2,6.3-6.2,8.7c-2.9,2.4-6.5,4.1-10.7,5.1c-7.1,1.7-13.5,1-19-2.1
				c-5.5-3.1-9.4-9.4-11.7-19c-2.5-10.7-1.9-19,1.9-25.1c3.3-5.3,8.7-8.8,16.1-10.5c5.5-1.3,10.3-1.2,14.4,0.4
				C1158.2,1169.7,1161.1,1172.6,1162.9,1176.7z M1133.5,1209c0.5,2.3,1.7,4.4,3.5,6.3c1.8,1.9,3.9,3,6.4,3.6c2.5,0.6,5,0.6,7.5,0
				c3.6-0.9,6.5-2.8,8.5-5.7c2.1-2.9,2.6-6.4,1.7-10.4c-0.9-3.8-2.9-6.5-6-8.1c-3.1-1.6-6.6-1.9-10.5-1c-3.9,0.9-6.9,2.8-9.1,5.7
				C1133.3,1202.2,1132.7,1205.4,1133.5,1209z"/>
			<path class="st16" d="M596.4,1120.3l-1.5-6.5L640,1103l1.2,5.3c-3.5,4.8-6.8,10.8-9.6,18.1c-2.9,7.3-4.8,14.4-5.6,21.6
				c-0.6,5-0.5,10.4,0.3,16l-8.8,2.1c-0.9-4.4-1.1-9.9-0.5-16.5c0.6-6.7,2.2-13.3,4.6-20c2.5-6.7,5.5-12.5,8.9-17.4L596.4,1120.3z"
				/>
			<path class="st16" d="M852.8,1077.2c-3.8-0.2-6.8-1-9-2.5c-2.2-1.5-3.6-3.6-4.2-6.3c-1-4,0.1-7.9,3.1-11.5
				c3-3.6,7.5-6.2,13.6-7.6c6.1-1.5,11.3-1.2,15.7,0.7c4.4,1.9,7.1,4.9,8,8.9c0.6,2.6,0.3,5-1,7.3c-1.3,2.3-3.5,4.4-6.7,6.2
				c4.6,0.1,8.2,1.1,11.1,3c2.8,1.9,4.6,4.6,5.4,8c1.1,4.7,0,9.2-3.5,13.4c-3.5,4.2-8.6,7.2-15.5,8.8c-6.9,1.7-12.8,1.3-17.8-0.9
				c-5-2.3-8.1-5.8-9.2-10.6c-0.9-3.6-0.4-6.9,1.3-9.9C845.9,1081.6,848.8,1079.2,852.8,1077.2z M851.7,1092.4
				c0.5,1.9,1.5,3.7,3.1,5.2c1.6,1.5,3.6,2.5,6.2,3c2.5,0.5,5.1,0.4,7.7-0.3c4.1-1,7.2-2.8,9.4-5.6c2.2-2.7,2.9-5.7,2.1-8.9
				c-0.8-3.3-2.8-5.7-6.1-7.1c-3.3-1.5-7-1.7-11.1-0.7c-4,0.9-7.1,2.8-9.3,5.6C851.7,1086.2,851,1089.2,851.7,1092.4z M848.4,1066.1
				c0.6,2.6,2.2,4.5,4.7,5.7c2.5,1.2,5.5,1.3,8.9,0.5c3.3-0.8,5.8-2.3,7.5-4.4c1.7-2.1,2.3-4.4,1.7-6.8c-0.6-2.5-2.2-4.3-4.8-5.5
				c-2.6-1.2-5.5-1.4-8.7-0.6c-3.3,0.8-5.8,2.2-7.6,4.4C848.4,1061.6,847.8,1063.8,848.4,1066.1z"/>
			<path class="st16" d="M1084.5,1040.2l8.1-2.6c1.4,2.9,3.3,4.8,5.6,5.7c2.3,0.9,5,1,8.1,0.3c2.6-0.6,4.8-1.7,6.6-3.1
				c1.8-1.4,3.1-3.1,4-5c0.9-1.9,1.4-4.3,1.7-7.2c0.2-2.9,0-5.8-0.7-8.6c-0.1-0.3-0.2-0.7-0.4-1.4c-1.2,2.6-3.1,4.9-5.8,6.9
				c-2.7,2.1-5.7,3.5-9.2,4.3c-5.8,1.4-11.1,0.9-15.9-1.5c-4.8-2.4-7.8-6.3-9.1-11.7c-1.3-5.6-0.3-10.6,3.1-15
				c3.4-4.4,8.2-7.4,14.5-8.9c4.5-1.1,8.9-1.1,13.1-0.1c4.2,1,7.7,3.1,10.6,6.2c2.8,3.1,5,8.1,6.6,14.9c1.7,7.1,2,12.9,1.1,17.6
				c-0.9,4.7-3.1,8.5-6.4,11.6c-3.3,3.1-7.5,5.3-12.7,6.5c-5.5,1.3-10.2,1.2-14.3-0.4C1089.1,1047.3,1086.2,1044.3,1084.5,1040.2z
				 M1113.8,1007.4c-0.9-3.9-3-6.7-6.1-8.4c-3.2-1.7-6.6-2.1-10.3-1.2c-3.8,0.9-6.8,3-9.1,6.1c-2.2,3.1-2.9,6.7-2,10.6
				c0.9,3.5,2.9,6.1,6.1,7.6c3.2,1.6,6.8,1.9,10.7,0.9c4-0.9,7-2.8,9-5.6C1114.1,1014.6,1114.7,1011.3,1113.8,1007.4z"/>
			<path class="st16" d="M726.3,1668.1c-1.6-6.6-2-12-1.2-16.4c0.8-4.4,2.5-8.1,5.4-11c2.9-3,6.8-5.1,11.9-6.3
				c3.7-0.9,7.2-1.1,10.3-0.6c3.1,0.5,5.9,1.7,8.2,3.5c2.4,1.8,4.5,4.2,6.3,7.2c1.8,3,3.4,7.2,4.7,12.7c1.5,6.5,1.9,11.9,1.2,16.3
				c-0.7,4.4-2.5,8.1-5.4,11c-2.8,3-6.8,5.1-11.9,6.3c-6.7,1.6-12.5,0.9-17.2-2C732.9,1685.4,728.8,1678.5,726.3,1668.1z
				 M735.1,1666c2.2,9.1,4.9,14.8,8.3,17.2c3.4,2.3,7,3.1,11,2.1c3.9-0.9,6.9-3.2,8.9-6.9c2-3.7,1.9-10-0.3-19.1
				c-2.2-9.1-4.9-14.8-8.3-17.2c-3.4-2.4-7.1-3-11.1-2.1c-3.9,0.9-6.8,3-8.5,6.2C733,1650.3,733,1656.9,735.1,1666z"/>
			<path class="st16" d="M1458.7,1523.1l-5.6-23.4l-29.3,7l-2.3-9.8l29.3-7l-5.5-23.2l12.5-3l5.5,23.3l29.3-7l2.3,9.8l-29.3,7
				l5.6,23.4L1458.7,1523.1z"/>
			<path class="st16" d="M1262.7,1531.3l-73.2,17.5l-2.4-10.1l73.2-17.5L1262.7,1531.3z M1269.1,1558l-73.2,17.5l-2.4-10.1
				l73.2-17.5L1269.1,1558z"/>
			<g>
				<path class="st16" d="M1327.7,943.9l-1.9-8l10.1-2.4l1.9,8L1327.7,943.9z"/>
				<path class="st16" d="M1334,970.5l-1.9-8l10.1-2.4l1.9,8.1L1334,970.5z"/>
				<path class="st16" d="M1306.7,962.9l-1.9-7.9l58.4-13.9l1.9,7.9L1306.7,962.9z"/>
			</g>
			<g>
				<path class="st16" d="M1393.3,1327.2l-1.9-7.9l58.4-13.9l1.9,7.8L1393.3,1327.2z"/>
			</g>
			<path class="st16" d="M1356.7,1175.4l17.8-27.8l-26.3-15.4l13.4-3.2l12.1,7.7c2.3,1.5,4.1,2.7,5.6,3.7c1.3-2.2,2.6-4.2,3.7-5.9
				l8.3-12.7l12.8-3.1l-17.1,25.4l28.9,17l-13.2,3.1l-16.1-10.2l-4.3-2.7l-12.6,20.9L1356.7,1175.4z"/>
			<path class="st16" d="M999.4,1636c1.1,4.7-2.8,9.7-8.7,11.1l0,0c-5.9,1.4-11.7-1.3-12.8-6l0,0c-1.1-4.7,2.8-9.7,8.7-11.1l0,0
				C992.5,1628.6,998.2,1631.3,999.4,1636L999.4,1636z"/>
		</g>
	</g>
</g>
<g>
	<path d="M941,905.8c-120.9,29.1-241.9,58.1-362.8,87.3c-21.7,5.2-42.9,4.4-63.5-4c-20.8-8.4-37.4-22.1-49-41.4
		c-6.6-11-10.5-23-13.5-35.5c-26.2-109.2-52.4-218.3-78.6-327.5c-7.8-32.4-15.5-64.8-23.4-97.1c-3.6-14.6-5.2-29.3-2.8-44.2
		c2.1-13.1,6.8-25.4,13.8-36.7c7-11.4,15.9-21.2,26.8-29c10.1-7.4,21.3-12.9,33.4-15.8c85.3-20.6,170.6-41.1,256-61.6
		c159.3-38.3,318.5-76.5,477.8-114.9c12.5-3,25-4.8,37.8-3.6c17.6,1.6,33.8,7.5,48.3,17.5c16,11,27.8,25.6,35.5,43.4
		c2.6,6.2,4.7,12.5,6.3,19.1c33.6,139.7,67.1,279.4,100.7,419.2c2.3,9.7,5,19.4,5.6,29.5c1.8,29.5-6.8,55.3-27.1,77
		c-14.6,15.6-32.7,25.1-53.4,30.1c-53,12.7-105.9,25.4-158.8,38.1C1080.3,872.3,1010.6,889.1,941,905.8
		C941,905.8,941,905.8,941,905.8z M800.7,302.9C800.7,302.9,800.7,302.9,800.7,302.9c-3.7,0.9-7.5,1.8-11.2,2.7
		c-117.9,28.3-235.9,56.7-353.8,85c-4.5,1.1-9,2.2-13.3,3.8c-17.9,6.8-31,18.8-38.9,36.4c-6.7,14.9-7.6,30.3-3.8,46.1
		c8,33.3,16,66.5,24,99.8c19.4,80.5,38.8,161,58.1,241.6c7.3,30.3,14.6,60.5,21.8,90.8c2.5,10.3,6.3,19.9,12.8,28.4
		c10.4,13.5,23.8,22.4,40.5,26c11.2,2.5,22.4,1.5,33.5-1.1c21.6-5,43.1-10.3,64.7-15.5c27.4-6.6,54.8-13.3,82.2-19.8
		c44.5-10.7,89.1-21.3,133.7-32c32-7.7,63.9-15.4,95.9-23.1c41.6-10,83.3-20,124.9-30c77.3-18.6,154.7-37.2,232-55.8
		c6.5-1.6,12.9-3.8,18.8-6.9c13.5-7,23.1-17.8,29.5-31.4c4.6-9.9,6.7-20.3,6.2-31.2c-0.4-8.8-2.5-17.4-4.6-25.9
		c-26.8-110.5-52.8-221.2-80-331.6c-7.7-31.3-15.1-62.6-22.6-93.9c-1.6-6.5-3.9-12.6-7.2-18.4c-6.8-12-16.6-20.6-28.9-26.8
		c-8.4-4.2-17.3-6.4-26.6-7c-8.9-0.5-17.7,1.1-26.3,3.2c-96.3,23.1-192.5,46.3-288.8,69.4C849,291.3,824.8,297.1,800.7,302.9z"/>
	<path class="st0" d="M800.7,302.9c24.1-5.8,48.3-11.6,72.4-17.4c96.3-23.1,192.5-46.3,288.8-69.4c8.6-2.1,17.4-3.7,26.3-3.2
		c9.3,0.6,18.2,2.8,26.6,7c12.2,6.1,22.1,14.8,28.9,26.8c3.3,5.8,5.6,11.9,7.2,18.4c7.5,31.3,14.9,62.7,22.6,93.9
		c27.2,110.4,53.2,221.1,80,331.6c2.1,8.5,4.2,17,4.6,25.9c0.5,10.9-1.6,21.3-6.2,31.2c-6.4,13.7-16,24.4-29.5,31.4
		c-6,3.1-12.3,5.4-18.8,6.9c-77.3,18.6-154.7,37.2-232,55.8c-41.6,10-83.3,20-124.9,30c-32,7.7-63.9,15.5-95.9,23.1
		c-44.5,10.7-89.1,21.3-133.7,32c-27.4,6.6-54.8,13.2-82.2,19.8c-21.6,5.2-43.1,10.5-64.7,15.5c-11,2.6-22.2,3.5-33.5,1.1
		c-16.7-3.7-30.1-12.5-40.5-26c-6.5-8.5-10.3-18.1-12.8-28.4c-7.2-30.3-14.5-60.5-21.8-90.8c-19.4-80.5-38.8-161-58.1-241.6
		c-8-33.3-16-66.5-24-99.8c-3.8-15.8-2.9-31.2,3.8-46.1c7.9-17.5,21-29.5,38.9-36.4c4.3-1.6,8.8-2.7,13.3-3.8
		c117.9-28.4,235.9-56.7,353.8-85C793.2,304.7,796.9,303.8,800.7,302.9C800.7,302.9,800.7,302.9,800.7,302.9z M1078.2,600.3
		c-3-12.5-5.2-21.8-7.5-31.1c-4.4-18.2-12.5-34.5-24.1-49.2c-7.8-9.9-17.1-18.1-27.2-25.5c-14.9-10.9-31.2-18.9-48.7-24.6
		c-10.1-3.3-20.4-5.8-30.9-7.7c-13.4-2.4-26.9-3.5-40.5-3.5c-9.7,0-19.4,0.7-29.1,1.8c-31.3,3.7-61.2,12.3-89.3,26.6
		c-23.4,11.9-44.4,27.1-62.4,46.3c-16.7,17.8-29.5,37.8-37.3,61c-7.7,23-8.6,46.2-2.9,69.7c1.7,7.1,4,14.1,5.5,21.3
		c1.7,7.8,3.5,15.6,5.4,23.4c1.9,8.2,3.7,16.5,6.6,24.5c7.5,20.5,20.4,37.4,36.6,51.7c12.4,10.9,26.5,19.2,41.7,25.9
		c16.9,7.4,34.6,12.3,52.8,15.1c14.1,2.2,28.3,2.9,42.6,2.5c12-0.4,23.9-1.3,35.6-3.5c23.8-4.4,46.9-11.1,68.9-21.6
		c24.7-11.7,47-26.7,66.2-46.2c12.6-12.8,23.3-27.1,31.5-43.1c7.1-13.8,11.9-28.3,14.1-43.8c1.9-13.3,1.8-26.5-0.7-39.8
		C1083.1,619.3,1079.9,608.3,1078.2,600.3z M694.7,454.2c-5.1-2.7-10-5.4-14.9-8.1c-4.6,9-15.3,14.7-26.7,9
		c-10.7-5.4-14-17.5-9.1-27.5c4.8-9.7,15.4-15.4,29.5-7.2c3-4.3,6-8.5,9-12.8c0.8-1.2,0-1.8-1-2.3c-14.6-7.6-28.9-7.4-42.3,2.6
		c-10,7.4-15.7,17.4-15.3,30.1c0.5,14.3,7.5,24.7,20.3,31.2C662.1,478.5,684.3,472,694.7,454.2z M805,383
		c-5.6,1.2-10.7,4.6-14.9,9.3c-8.6,9.6-9.4,23.4-2.3,33.2c10.7,14.6,32.7,16.2,45.5,3.1c8-8.2,10.8-20.3,6.8-29.6
		C834.6,386.2,819.7,379.2,805,383z M971.2,376.4c0.2-2.9-1.1-5.4-2.1-8c-2.8-7-7-12.9-14.1-16c-10.6-4.5-20.4-2.4-28.9,4.7
		c-8.4,7-11.3,16.1-8.5,27c2.5,9.9,8.3,17.1,18,20.3c13.1,4.4,26-1.5,34.1-10.4c1.5-1.6,1-2.7-0.6-3.7c-2.7-1.6-5.4-3.3-8.1-4.9
		c-1.8-1.1-2.7-0.7-4.1,0.7c-3.3,3.2-7.1,5.3-11.9,5.4c-4,0-8.4-2.8-9.6-6.4C947.3,382.1,959.2,379.3,971.2,376.4z M728.5,425.1
		c-1.7,0-3.3,0-4.9,0c-7.8-0.3-14.5,2.5-20.1,7.8c-6.2,5.8-7,14-2.3,20.7c5.4,7.7,18.9,9.6,27.4,3.8c2.2-1.5,4.6-3,6-6
		c0.7,1.3,1.1,2,1.6,2.8c0.4,0.6,0.9,1.1,1.7,0.9c4.9-1.2,9.8-2.4,14.5-3.5c0.4-1.1,0.3-1.7,0.2-2.3c-2.5-9.9-4.4-20-7.5-29.8
		c-3.6-11.3-13.7-17.5-25.4-15.8c-8.7,1.3-15.9,5.5-22.7,10.6c-0.7,0.5-1.2,1.1-0.6,1.9c2.2,2.9,4.5,5.8,7.1,8.2
		c0.8-0.1,1.1-0.5,1.4-0.8c4.1-3.9,8.9-6,14.5-6.1C723.8,417.5,728.2,420.9,728.5,425.1z M984.5,377.6c-1.2,3.8-2.4,7.4-3.6,11
		c-0.4,1.2,0.4,1.7,1.3,2c11.9,3.8,23.5,3.8,34.3-3.5c8.8-5.9,9.3-15.3,5.5-21.9c-3.2-5.6-8.9-7.3-14.9-7.8
		c-4.1-0.3-8.1-0.4-12.2-0.7c-1.6-0.1-3.5,0-3.6-2.3c-0.2-2.2,1.4-3.1,3.2-3.7c0.6-0.2,1.2-0.3,1.8-0.4c4.4-0.6,8.8-0.1,13,1.1
		c1,0.3,2,0.6,2.4-0.8c0.9-3.3,1.8-6.5,2.6-9.8c0.3-1.2-0.3-1.9-1.6-2.3c-3.4-0.9-6.9-1.6-10.5-1.7c-9-0.2-17.2,1.8-23.4,8.8
		c-4.2,4.8-4.7,10.4-2.6,16.3c1.8,5.1,5.8,7.5,10.8,8.6c2.9,0.6,5.8,0.8,8.7,0.9c3.1,0.1,6.3-0.2,9.4,0.4c1.5,0.3,2.9,0.9,3,2.7
		c0.1,1.7-1.1,2.5-2.4,3.1c-2.6,1-5.2,1.7-8.1,1.7C993.3,379.6,989,378.7,984.5,377.6z M1279.4,681.2c-43.1,10.4-86,20.7-129.1,31
		c0.5,3.8,1.5,7.5,2.8,11.2c43-10.3,85.7-20.6,128.8-31C1281.5,688.7,1280.6,685.1,1279.4,681.2z M1286.7,711.3
		c-2.6,0.2-4.9,0.8-7.1,1.3c-38.1,9.1-76.2,18.3-114.3,27.4c-2.1,0.5-4.2,1-6.3,1.5c-1.1,0.3-1.9,0.7-1.5,2.1
		c0.6,2.5,1.2,5.1,1.9,7.6c0.4,1.4,1,2,2.7,1.5c5.5-1.5,11-2.9,16.6-4.2c36.3-8.7,72.5-17.7,108.8-26c1.3-0.3,1.7-0.8,1.4-2.1
		C1288.2,717.5,1287.5,714.5,1286.7,711.3z M1145.8,693.6c4.3-1,8.3-2,12.3-2.9c38.3-9.1,76.5-18.6,114.9-27.4
		c1.6-0.4,2.1-1,1.6-2.6c-0.5-1.8-0.9-3.6-1.3-5.4c-0.9-3.7-0.9-3.7-4.5-2.8c-32.8,7.9-65.6,15.8-98.4,23.6
		c-8.2,2-16.4,3.8-24.5,5.7c-1.2,0.3-2.8,0.4-2.5,2.1C1143.9,687.2,1144.6,690.4,1145.8,693.6z M780.5,444.5c0.4-1,0-1.8-0.2-2.6
		c-3.7-15.7-7.4-31.3-11.1-47c-1.5-6.1-3-12.3-4.5-18.4c-0.2-0.9-0.3-2-1.6-1.7c-5.3,1.2-10.7,2.3-15.7,4.3
		c5.6,23.2,11.1,46.2,16.7,69.3C769.7,447.2,775,445.9,780.5,444.5z M872.4,422.5c0.5-1.2,0.1-2.2-0.1-3.3
		c-1.6-6.8-3.3-13.6-4.8-20.5c-1.7-7.8,1.5-14.2,8.7-17.7c1.3-0.6,2.7-1,4.3-1.6c-0.4-4.7-2-9.1-2.9-14c-7.1,2.4-12.2,6.2-14.4,13.4
		c-1.2-1-1.2-2.5-1.5-3.8c-1-4.4-0.9-4.4-5.3-3.4c-4.2,1-8.3,2-12.6,3c4.2,17.4,8.3,34.4,12.4,51.5
		C861.7,425.1,867,423.8,872.4,422.5z M914.8,412.3c-4.2-17.3-8.3-34.4-12.4-51.4c-5.7,1.4-11.2,2.7-16.7,4
		c4.1,17.2,8.2,34.3,12.4,51.4C903.7,415,909.1,413.7,914.8,412.3z M887.8,338.7c-4.3,1.1-7.4,6.3-6.3,10.9
		c1.1,4.8,6.2,7.9,11.1,6.7c4.6-1.1,7.6-6.3,6.5-11C898,340.5,892.8,337.4,887.8,338.7z"/>
	<path d="M694.7,454.2c-10.4,17.8-32.6,24.3-50.5,15.1c-12.7-6.5-19.8-17-20.3-31.2c-0.4-12.6,5.3-22.6,15.3-30.1
		c13.5-10,27.7-10.2,42.3-2.6c1,0.5,1.8,1.1,1,2.3c-3,4.3-6,8.5-9,12.8c-14.1-8.3-24.7-2.6-29.5,7.2c-5,10-1.6,22,9.1,27.5
		c11.4,5.8,22.1,0,26.7-9C684.7,448.8,689.6,451.4,694.7,454.2z"/>
	<path d="M805,383c14.8-3.8,29.7,3.2,35.2,16.1c4,9.3,1.2,21.4-6.8,29.6c-12.8,13-34.8,11.5-45.5-3.1c-7.2-9.9-6.3-23.6,2.3-33.2
		C794.3,387.6,799.4,384.2,805,383z M799.8,412.6c1.8,7.1,8.9,11.7,15.5,10.1c6.9-1.7,11.3-9.1,9.9-15.8c-1.4-7-10.7-11.6-15.9-10.3
		C802.6,398.4,798.1,405.7,799.8,412.6z"/>
	<path d="M971.2,376.4c-12,2.9-23.9,5.7-35.8,8.6c1.2,3.6,5.6,6.5,9.6,6.4c4.8,0,8.6-2.2,11.9-5.4c1.4-1.3,2.2-1.7,4.1-0.7
		c2.7,1.6,5.3,3.4,8.1,4.9c1.6,0.9,2.1,2.1,0.6,3.7c-8.1,8.8-21,14.8-34.1,10.4c-9.7-3.3-15.5-10.4-18-20.3c-2.8-10.8,0-20,8.5-27
		c8.6-7.1,18.4-9.2,28.9-4.7c7.2,3.1,11.3,9,14.1,16C970.2,371,971.4,373.5,971.2,376.4z M953.3,369.7c-4.4-5.5-8.7-6.7-14-4.5
		c-3.3,1.4-6.5,6.3-6,9.3C939.9,372.9,946.4,371.4,953.3,369.7z"/>
	<path d="M728.5,425.1c-0.3-4.2-4.7-7.6-9.3-7.5c-5.6,0.1-10.5,2.2-14.5,6.1c-0.3,0.3-0.6,0.7-1.4,0.8c-2.5-2.4-4.8-5.3-7.1-8.2
		c-0.6-0.8-0.1-1.4,0.6-1.9c6.8-5.1,14.1-9.3,22.7-10.6c11.7-1.8,21.8,4.5,25.4,15.8c3.2,9.8,5,19.8,7.5,29.8
		c0.2,0.6,0.3,1.2-0.2,2.3c-4.6,1.1-9.5,2.3-14.5,3.5c-0.8,0.2-1.3-0.2-1.7-0.9c-0.4-0.7-0.8-1.4-1.6-2.8c-1.5,3-3.8,4.5-6,6
		c-8.5,5.8-21.9,3.9-27.4-3.8c-4.7-6.7-3.9-14.9,2.3-20.7c5.6-5.3,12.3-8.1,20.1-7.8C725.2,425.1,726.8,425.1,728.5,425.1z
		 M722.4,434.8c-1.6,0.3-3.1,0.8-4.5,1.6c-2.4,1.4-3.3,3.6-3.1,6.2c0.1,2.5,1.3,4.3,3.7,5.4c3.5,1.6,8.4,0.4,11.8-2.8
		c2.3-2.2,2.8-6,1.2-9.7c-0.5-1.2-1.2-1.6-2.5-1.6C726.8,434.2,724.6,434.3,722.4,434.8z"/>
	<path d="M984.5,377.6c4.5,1.1,8.8,2,13.3,2c2.8,0,5.5-0.7,8.1-1.7c1.3-0.5,2.5-1.4,2.4-3.1c-0.1-1.8-1.5-2.4-3-2.7
		c-3.1-0.6-6.3-0.4-9.4-0.4c-2.9-0.1-5.8-0.2-8.7-0.9c-5-1.1-9.1-3.6-10.8-8.6c-2-5.8-1.5-11.5,2.6-16.3c6.2-7.1,14.4-9.1,23.4-8.8
		c3.5,0.1,7,0.8,10.5,1.7c1.3,0.3,1.9,1,1.6,2.3c-0.8,3.3-1.7,6.5-2.6,9.8c-0.4,1.4-1.4,1.1-2.4,0.8c-4.3-1.2-8.6-1.7-13-1.1
		c-0.6,0.1-1.2,0.2-1.8,0.4c-1.7,0.6-3.3,1.5-3.2,3.7c0.2,2.3,2,2.2,3.6,2.3c4.1,0.3,8.1,0.4,12.2,0.7c6.1,0.5,11.7,2.2,14.9,7.8
		c3.8,6.6,3.3,16-5.5,21.9c-10.8,7.3-22.4,7.3-34.3,3.5c-1-0.3-1.7-0.7-1.3-2C982.1,385,983.3,381.3,984.5,377.6z"/>
	<path d="M1279.4,681.2c1.2,3.8,2.1,7.4,2.5,11.3c-43.1,10.4-85.8,20.6-128.8,31c-1.2-3.7-2.3-7.4-2.8-11.2
		C1193.3,701.9,1236.2,691.6,1279.4,681.2z"/>
	<path d="M1286.7,711.3c0.8,3.2,1.5,6.2,2.2,9.2c0.3,1.2-0.1,1.8-1.4,2.1c-36.4,8.3-72.6,17.3-108.8,26c-5.5,1.3-11.1,2.7-16.6,4.2
		c-1.7,0.5-2.3-0.1-2.7-1.5c-0.7-2.5-1.2-5.1-1.9-7.6c-0.3-1.4,0.5-1.8,1.5-2.1c2.1-0.5,4.2-1,6.3-1.5
		c38.1-9.1,76.2-18.3,114.3-27.4C1281.9,712.1,1284.1,711.5,1286.7,711.3z"/>
	<path d="M1145.8,693.6c-1.2-3.2-1.9-6.4-2.5-9.7c-0.3-1.7,1.3-1.8,2.5-2.1c8.2-1.9,16.4-3.8,24.5-5.7c32.8-7.9,65.6-15.8,98.4-23.6
		c3.6-0.9,3.6-0.9,4.5,2.8c0.4,1.8,0.8,3.6,1.3,5.4c0.5,1.6-0.1,2.2-1.6,2.6c-38.4,8.8-76.6,18.3-114.9,27.4
		C1154.1,691.6,1150.1,692.6,1145.8,693.6z"/>
	<path d="M780.5,444.5c-5.5,1.3-10.9,2.6-16.4,4c-5.6-23.2-11.1-46.2-16.7-69.3c5-2,10.4-3.1,15.7-4.3c1.4-0.3,1.4,0.8,1.6,1.7
		c1.5,6.1,3.1,12.3,4.5,18.4c3.7,15.7,7.4,31.3,11.1,47C780.5,442.7,780.9,443.5,780.5,444.5z"/>
	<path d="M872.4,422.5c-5.4,1.3-10.7,2.6-16.2,3.9c-4.1-17.1-8.2-34.2-12.4-51.5c4.3-1,8.4-2,12.6-3c4.4-1.1,4.4-1,5.3,3.4
		c0.3,1.3,0.3,2.8,1.5,3.8c2.1-7.2,7.3-11,14.4-13.4c0.9,5,2.6,9.3,2.9,14c-1.6,0.6-3,0.9-4.3,1.6c-7.3,3.5-10.5,9.8-8.7,17.7
		c1.5,6.8,3.2,13.6,4.8,20.5C872.6,420.3,872.9,421.3,872.4,422.5z"/>
	<path d="M914.8,412.3c-5.7,1.4-11.1,2.7-16.7,4c-4.1-17.1-8.2-34.2-12.4-51.4c5.5-1.3,11-2.6,16.7-4
		C906.5,378,910.6,395,914.8,412.3z"/>
	<path d="M887.8,338.7c5-1.2,10.2,1.8,11.3,6.6c1.1,4.7-1.9,9.9-6.5,11c-4.9,1.2-9.9-1.9-11.1-6.7
		C880.5,345,883.5,339.7,887.8,338.7z"/>
	<path class="st17" d="M846.3,477.4c16.2-3.9,37.8-6.3,59.7-5.7c14.6,0.4,29.1,2.1,43.3,5.4c11,2.6,21.8,6.1,32.2,10.6
		c14.2,6.1,27.5,14,39.2,24.1c19.2,16.6,32.4,36.8,37.6,62c4.6,22.1,2.1,43.3-6,64.1c-5.7,14.8-14.1,27.9-23.7,40.3
		c-3.7,4.8-8.1,8.9-12.1,13.3c-1.4,1.5-2.7,1.2-4.3,0.2c-11.7-7.2-23.4-14.3-35.1-21.5c-26.9-16.5-53.8-32.9-80.6-49.4
		c-17.3-10.6-34.7-21.3-52-31.9c-15.3-9.3-30.6-18.6-45.8-27.9c-17.2-10.5-34.4-21.1-51.6-31.6c-3.1-1.9-3.1-2.6-0.4-4.8
		c12.8-10.3,26.5-19.1,41.1-26.5C804.7,489.4,822.6,483.2,846.3,477.4z"/>
	<path class="st18" d="M691.5,662.3c-5.7-23.4-4.2-43.2,1.9-62.9c4.5-14.4,11.8-27.3,20.3-39.5c5.4-7.8,11.7-14.9,18.5-21.6
		c1.3-1.2,2.3-1.1,3.7-0.2c13.7,8.5,27.2,17.2,41.1,25.3c13,7.5,25.5,15.9,38.5,23.4c14.2,8.3,28.1,17.3,42.1,25.9
		c1.3,0.8,2.7,1.5,4,2.3c2.7,1.5,2.9,2.4,1.3,4.9c-3.6,5.9-7.3,11.8-10.9,17.7c-8.5,13.9-16.7,27.9-25.4,41.6
		c-4.3,6.8-8.1,14-12.6,20.7c-6.3,9.5-12,19.4-17.9,29.1c-3.2,5.3-6.7,10.5-9.8,15.9c-1.5,2.7-2.3,2.8-5.5,1.8
		c-15.8-5-30.3-12.5-43.8-21.9c-10.5-7.3-19.4-16.3-27.1-26.5C700.9,686.6,694,673.7,691.5,662.3z"/>
	<path class="st19" d="M907.4,750.7c-19.3,4.7-38.6,7.2-58.2,7.1c-14.6-0.1-29.1-1.2-43.4-4c-1.6-0.3-3.2-0.7-4.7-1
		c-2.5-0.4-2.8-1-1.8-3.2c1.9-4.2,4.7-7.8,7.1-11.6c8-13.2,16.1-26.3,24.1-39.4c10.5-17.1,20.9-34.2,31.4-51.2
		c4.4-7.1,8.5-14.3,13.1-21.2c1.1-1.7,2-1.8,3.7-0.8c20.1,12.4,40.3,24.8,60.5,37.1c20.6,12.6,41.3,25.2,61.9,37.8
		c2.8,1.7,2.8,2.5,0.3,4.5c-5.8,4.8-11.9,9.3-18.3,13.3c-11.9,7.4-23.9,14.2-36.8,19.7C933.6,743.2,920.5,747.3,907.4,750.7z"/>
	<path class="st20" d="M797.8,765.8c3.8,0.7,7.4,1.6,11,2.2c15.2,2.6,30.5,3.7,45.8,3.4c22.2-0.4,43.9-4,65.2-9.8
		c27.4-7.5,52.7-19.4,76-35.8c4.3-3,8.5-6.1,12.6-9.4c2.8-2.3,3.3-2.1,4.2,1.6c1.9,7.9,3.8,15.9,5.7,23.8c1,4,1.9,8.1,2.9,12.1
		c0.4,1.8-0.1,3.1-1.6,4.4c-10.5,9.7-22.3,17.7-34.6,24.9c-10.2,6-21.1,10.7-32.1,15.1c-15.7,6.2-32.1,10.1-48.6,13.2
		c-16.2,3-32.6,4.4-49.2,3.7c-12.4-0.5-24.7-1.7-36.9-4.3c-3-0.6-6-1.6-9-2.3c-1.6-0.4-2.5-1.3-2.8-2.9c-0.7-3.6-1.5-7.2-2.3-10.8
		c-2-8.1-4-16.1-6.1-24.2C797.7,769.3,797.3,767.8,797.8,765.8z"/>
	<path class="st21" d="M1070.3,626.2c1,0.5,1,1.5,1.2,2.4c3.4,15.3,4,30.7,0.7,46.1c-4.4,20.8-13.4,39.4-26.3,56.2
		c-3.4,4.4-6.8,8.7-10.6,12.8c-0.6,0.6-1,1.5-2,1.3c-0.9-0.2-1-1.1-1.2-1.8c-3-12.5-6-25-9-37.5c-0.4-1.7,0.2-3,1.4-4.1
		c13.6-13,24.7-27.9,33.3-44.6c4.7-9.1,8.5-18.6,11.3-28.5c0.2-0.6,0.4-1.2,0.6-1.7C1069.9,626.4,1070.2,626.3,1070.3,626.2z"/>
	<path d="M1078.2,600.3c-3-12.5-5.2-21.8-7.5-31.1c-4.4-18.2-12.5-34.5-24.1-49.2c-7.8-9.9-17.1-18.1-27.2-25.5
		c-14.9-10.9-31.2-18.9-48.7-24.6c-10.1-3.3-20.4-5.8-30.9-7.7c-13.4-2.4-26.9-3.5-40.5-3.5c-9.7,0-19.4,0.7-29.1,1.8
		c-31.3,3.7-61.2,12.3-89.3,26.6c-23.4,11.9-44.4,27.1-62.4,46.3c-16.7,17.8-29.5,37.8-37.3,61c-7.7,23-8.6,46.2-2.9,69.7
		c1.7,7.1,4,14.1,5.5,21.3c1.7,7.8,3.5,15.6,5.4,23.4c1.9,8.2,3.7,16.5,6.6,24.5c7.5,20.5,20.4,37.4,36.6,51.7
		c12.4,10.9,26.5,19.2,41.7,25.9c16.9,7.4,34.6,12.3,52.8,15.1c14.1,2.2,28.3,2.9,42.6,2.5c12-0.4,23.9-1.3,35.6-3.5
		c23.8-4.4,46.9-11.1,68.9-21.6c24.7-11.7,47-26.7,66.2-46.2c12.6-12.8,23.3-27.1,31.5-43.1c7.1-13.8,11.9-28.3,14.1-43.8
		c1.9-13.3,1.8-26.5-0.7-39.8C1083.1,619.3,1079.9,608.3,1078.2,600.3z M786.3,745.1c-1.5,2.7-2.3,2.8-5.5,1.8
		c-15.8-5-30.3-12.5-43.8-21.9c-10.5-7.3-19.4-16.3-27.1-26.5c-9-11.9-15.9-24.8-18.3-36.2c-5.7-23.4-4.2-43.2,1.9-62.9
		c4.5-14.4,11.8-27.3,20.3-39.5c5.4-7.8,11.7-14.9,18.5-21.6c1.3-1.2,2.3-1.1,3.7-0.2c13.7,8.5,27.2,17.2,41.1,25.3
		c13,7.5,25.5,15.9,38.5,23.4c14.2,8.3,28.1,17.3,42.1,25.9c1.3,0.8,2.7,1.5,4,2.3c2.7,1.5,2.9,2.4,1.3,4.9
		c-3.6,5.9-7.3,11.8-10.9,17.7c-8.5,13.9-16.7,27.9-25.4,41.6c-4.3,6.8-8.1,14-12.6,20.7c-6.3,9.5-12,19.4-17.9,29.1
		C792.9,734.5,789.4,739.7,786.3,745.1z M875,626c1.1-1.7,2-1.8,3.7-0.8c20.1,12.4,40.3,24.8,60.5,37.1
		c20.6,12.6,41.3,25.2,61.9,37.8c2.8,1.7,2.8,2.5,0.3,4.5c-5.8,4.8-11.9,9.3-18.3,13.3c-11.9,7.4-23.9,14.2-36.8,19.7
		c-12.7,5.4-25.9,9.5-39,12.9c-19.3,4.7-38.6,7.2-58.2,7.1c-14.6-0.1-29.1-1.2-43.4-4c-1.6-0.3-3.2-0.7-4.7-1
		c-2.5-0.4-2.8-1-1.8-3.2c1.9-4.2,4.7-7.8,7.1-11.6c8-13.2,16.1-26.3,24.1-39.4c10.5-17.1,20.9-34.2,31.4-51.2
		C866.2,640.2,870.4,633,875,626z M1018.4,741.8c1,4,1.9,8.1,2.9,12.1c0.4,1.8-0.1,3.1-1.6,4.4c-10.5,9.7-22.3,17.7-34.6,24.9
		c-10.2,6-21.1,10.7-32.1,15.1c-15.7,6.2-32.1,10.1-48.6,13.2c-16.2,3-32.6,4.4-49.2,3.7c-12.4-0.5-24.7-1.7-36.9-4.3
		c-3-0.6-6-1.6-9-2.3c-1.6-0.4-2.5-1.3-2.8-2.9c-0.7-3.6-1.5-7.2-2.3-10.8c-2-8.1-4-16.1-6.1-24.2c-0.4-1.5-0.8-3-0.3-5
		c3.8,0.7,7.4,1.6,11,2.2c15.2,2.6,30.5,3.7,45.8,3.4c22.2-0.4,43.9-4,65.2-9.8c27.4-7.5,52.7-19.4,76-35.8c4.3-3,8.5-6.1,12.6-9.4
		c2.8-2.3,3.3-2.1,4.2,1.6C1014.6,725.9,1016.5,733.8,1018.4,741.8z M1012.2,691.7c-11.7-7.2-23.4-14.3-35.1-21.5
		c-26.9-16.5-53.8-32.9-80.6-49.4c-17.3-10.6-34.7-21.3-52-31.9c-15.3-9.3-30.6-18.6-45.8-27.9c-17.2-10.5-34.4-21.1-51.6-31.6
		c-3.1-1.9-3.1-2.6-0.4-4.8c12.8-10.3,26.5-19.1,41.1-26.5c17-8.7,34.9-14.9,58.5-20.7c16.2-3.9,37.8-6.3,59.7-5.7
		c14.6,0.4,29.1,2.1,43.3,5.4c11,2.6,21.8,6.1,32.2,10.6c14.2,6.1,27.5,14,39.2,24.1c19.2,16.6,32.4,36.8,37.6,62
		c4.6,22.1,2.1,43.3-6,64.1c-5.7,14.8-14.1,27.9-23.7,40.3c-3.7,4.8-8.1,8.9-12.1,13.3C1015.1,693,1013.8,692.6,1012.2,691.7z
		 M1071.6,628.6c3.4,15.3,4,30.7,0.7,46.1c-4.4,20.8-13.4,39.4-26.3,56.2c-3.4,4.4-6.8,8.7-10.6,12.8c-0.6,0.6-1,1.5-2,1.3
		c-0.9-0.2-1-1.1-1.2-1.8c-3-12.5-6-25-9-37.5c-0.4-1.7,0.2-3,1.4-4.1c13.6-13,24.7-27.9,33.3-44.6c4.7-9.1,8.5-18.6,11.3-28.5
		c0.2-0.6,0.4-1.2,0.6-1.7c0.1-0.2,0.3-0.3,0.5-0.5C1071.3,626.7,1071.4,627.7,1071.6,628.6z"/>
	<path class="st22" d="M704.9,715.1c-0.6,0.9-0.2,1.8,0,2.7c3.9,15.2,10.4,29.1,20.3,41.4c13.3,16.5,29.9,29,49,38.1
		c5,2.4,10.1,4.7,15.3,6.6c0.8,0.3,1.6,0.9,2.4,0.2c0.7-0.6,0.4-1.5,0.2-2.2c-3-12.5-6-25-9.1-37.5c-0.4-1.7-1.5-2.6-3.1-3
		c-18-5.4-34.7-13.6-49.9-24.6c-8.3-6-16.1-12.7-23-20.3c-0.4-0.5-0.9-0.9-1.3-1.3C705.4,715.2,705.2,715.2,704.9,715.1z"/>
	<path class="st0" d="M799.8,412.6c-1.7-6.9,2.8-14.2,9.5-16c5.3-1.4,14.5,3.3,15.9,10.3c1.3,6.7-3,14.1-9.9,15.8
		C808.7,424.3,801.6,419.7,799.8,412.6z"/>
	<path class="st0" d="M953.3,369.7c-6.9,1.7-13.5,3.2-20.1,4.8c-0.5-3,2.7-7.9,6-9.3C944.6,363,948.9,364.2,953.3,369.7z"/>
	<path class="st0" d="M722.4,434.8c2.2-0.6,4.4-0.7,6.6-0.8c1.2-0.1,2,0.4,2.5,1.6c1.5,3.7,1.1,7.5-1.2,9.7
		c-3.5,3.3-8.3,4.4-11.8,2.8c-2.4-1.1-3.5-2.9-3.7-5.4c-0.1-2.6,0.7-4.8,3.1-6.2C719.3,435.6,720.8,435.2,722.4,434.8z"/>
</g>
</svg>
